<svg width="20" height="20" viewBox="0 0 20 20" fill="none" xmlns="http://www.w3.org/2000/svg">
<path d="M10.0078 5.15625C9.42065 5.15625 8.84667 5.33036 8.35846 5.65657C7.87026 5.98278 7.48974 6.44644 7.26505 6.98891C7.04035 7.53138 6.98156 8.12829 7.09611 8.70417C7.21066 9.28006 7.4934 9.80904 7.90859 10.2242C8.32378 10.6394 8.85276 10.9222 9.42864 11.0367C10.0045 11.1513 10.6014 11.0925 11.1439 10.8678C11.6864 10.6431 12.15 10.2626 12.4762 9.77435C12.8024 9.28614 12.9766 8.71216 12.9766 8.125C12.9766 7.33764 12.6638 6.58253 12.107 6.02578C11.5503 5.46903 10.7952 5.15625 10.0078 5.15625ZM10.0078 10.1562C9.60607 10.1562 9.21335 10.0371 8.87931 9.81392C8.54527 9.59073 8.28492 9.27349 8.13118 8.90233C7.97744 8.53116 7.93722 8.12275 8.01559 7.72872C8.09397 7.3347 8.28743 6.97276 8.5715 6.68869C8.85558 6.40461 9.21751 6.21116 9.61154 6.13278C10.0056 6.0544 10.414 6.09463 10.7851 6.24837C11.1563 6.40211 11.4735 6.66246 11.6967 6.9965C11.9199 7.33054 12.0391 7.72326 12.0391 8.125C12.037 8.66309 11.8223 9.17855 11.4418 9.55904C11.0614 9.93953 10.5459 10.1542 10.0078 10.1562ZM10.0078 1.40625C8.22652 1.40832 6.51878 2.11685 5.25922 3.37641C3.99966 4.63597 3.29113 6.34371 3.28906 8.125C3.28906 10.5391 4.41406 13.1016 6.53125 15.5391C7.486 16.6467 8.56318 17.6427 9.74219 18.5078C9.81995 18.5628 9.9126 18.5927 10.0078 18.5938C10.1052 18.5915 10.2001 18.5617 10.2813 18.5078C11.4549 17.639 12.5291 16.6434 13.4844 15.5391C15.6094 13.1016 16.7266 10.5391 16.7266 8.125C16.7245 6.34371 16.016 4.63597 14.7564 3.37641C13.4968 2.11685 11.7891 1.40832 10.0078 1.40625ZM10.0078 17.5391C8.83594 16.6328 4.22656 12.7812 4.22656 8.125C4.22656 6.59172 4.83566 5.12123 5.91985 4.03704C7.00405 2.95284 8.47453 2.34375 10.0078 2.34375C11.5411 2.34375 13.0116 2.95284 14.0958 4.03704C15.18 5.12123 15.7891 6.59172 15.7891 8.125C15.7891 12.7812 11.1797 16.6328 10.0078 17.5391Z" fill="#777777"/>
</svg>
