<svg width="20" height="20" viewBox="0 0 20 20" fill="none" xmlns="http://www.w3.org/2000/svg">
<path d="M13.9417 1.7207H6.05832C5.53551 1.75211 5.0462 1.98853 4.69669 2.37861C4.34717 2.76869 4.16569 3.28092 4.19166 3.80404V16.1957C4.16569 16.7188 4.34717 17.231 4.69669 17.6211C5.0462 18.0112 5.53551 18.2476 6.05832 18.279H13.9417C14.4645 18.2476 14.9538 18.0112 15.3033 17.6211C15.6528 17.231 15.8343 16.7188 15.8083 16.1957V3.80404C15.8343 3.28092 15.6528 2.76869 15.3033 2.37861C14.9538 1.98853 14.4645 1.75211 13.9417 1.7207ZM14.975 16.1957C15.0004 16.4978 14.9065 16.7978 14.7133 17.0315C14.5202 17.2652 14.2431 17.4139 13.9417 17.4457H6.05832C5.75683 17.4139 5.47981 17.2652 5.28665 17.0315C5.09349 16.7978 4.99956 16.4978 5.02499 16.1957V3.80404C4.99956 3.50194 5.09349 3.2019 5.28665 2.96823C5.47981 2.73457 5.75683 2.58588 6.05832 2.55404H7.33332V2.97904C7.33332 3.20005 7.42112 3.41201 7.5774 3.56829C7.73368 3.72457 7.94564 3.81237 8.16666 3.81237H11.8333C12.0543 3.81237 12.2663 3.72457 12.4226 3.56829C12.5789 3.41201 12.6667 3.20005 12.6667 2.97904V2.55404H13.9417C14.2431 2.58588 14.5202 2.73457 14.7133 2.96823C14.9065 3.2019 15.0004 3.50194 14.975 3.80404V16.1957Z" fill="#777777"/>
<path d="M8.33335 15.7782H11.6667C11.7772 15.7782 11.8832 15.7343 11.9613 15.6561C12.0395 15.578 12.0834 15.472 12.0834 15.3615C12.0834 15.251 12.0395 15.145 11.9613 15.0669C11.8832 14.9887 11.7772 14.9448 11.6667 14.9448H8.33335C8.22285 14.9448 8.11687 14.9887 8.03873 15.0669C7.96059 15.145 7.91669 15.251 7.91669 15.3615C7.91669 15.472 7.96059 15.578 8.03873 15.6561C8.11687 15.7343 8.22285 15.7782 8.33335 15.7782Z" fill="#777777"/>
</svg>
