<svg width="24" height="24" viewBox="0 0 24 24" fill="none" xmlns="http://www.w3.org/2000/svg">
<path d="M11.0887 4C15.0017 4 18.1774 7.17574 18.1774 11.0887C18.1774 15.0017 15.0017 18.1774 11.0887 18.1774C7.17574 18.1774 4 15.0017 4 11.0887C4 7.17574 7.17574 4 11.0887 4ZM11.0887 16.6021C14.1345 16.6021 16.6021 14.1345 16.6021 11.0887C16.6021 8.04214 14.1345 5.57527 11.0887 5.57527C8.04214 5.57527 5.57527 8.04214 5.57527 11.0887C5.57527 14.1345 8.04214 16.6021 11.0887 16.6021ZM17.7718 16.6581L20 18.8855L18.8855 20L16.6581 17.7718L17.7718 16.6581Z" fill="white"/>
</svg>
