<svg width="24" height="24" viewBox="0 0 24 24" fill="none" xmlns="http://www.w3.org/2000/svg">
<path d="M18.0869 12.6144L18.9905 7.65906C19.0062 7.57396 19.0024 7.48638 18.9793 7.40296C18.9562 7.31955 18.9144 7.24248 18.8571 7.17761C18.8024 7.11063 18.7335 7.05663 18.6554 7.01949C18.5772 6.98234 18.4919 6.96298 18.4054 6.96281H6.4588L6.09588 4.97032C6.04575 4.69829 5.90206 4.45237 5.68969 4.27516C5.47732 4.09795 5.20966 4.00061 4.93308 4H3.59251C3.43537 4 3.28466 4.06243 3.17354 4.17356C3.06243 4.28468 3 4.4354 3 4.59256C3 4.74972 3.06243 4.90044 3.17354 5.01157C3.28466 5.12269 3.43537 5.18512 3.59251 5.18512H4.93308L6.96243 16.3697C6.6731 16.6246 6.46054 16.9551 6.34863 17.3241C6.23672 17.6931 6.22989 18.086 6.32891 18.4587C6.42794 18.8313 6.62889 19.169 6.90919 19.4338C7.1895 19.6986 7.53807 19.8799 7.91576 19.9576C8.29344 20.0352 8.68528 20.0059 9.04727 19.8732C9.40926 19.7404 9.72707 19.5093 9.96501 19.2059C10.2029 18.9024 10.3516 18.5387 10.3942 18.1554C10.4369 17.7722 10.3718 17.3847 10.2064 17.0363H14.1615C13.9689 17.4424 13.9134 17.9 14.0033 18.3403C14.0933 18.7805 14.3237 19.1797 14.6601 19.4777C14.9965 19.7757 15.4205 19.9563 15.8684 19.9924C16.3163 20.0286 16.7638 19.9182 17.1436 19.678C17.5234 19.4378 17.8149 19.0808 17.9742 18.6606C18.1335 18.2404 18.1521 17.7798 18.0271 17.3482C17.9021 16.9166 17.6403 16.5372 17.281 16.2672C16.9218 15.9972 16.4846 15.8512 16.0353 15.8512H8.0734L7.74751 14.0735H16.339C16.755 14.0733 17.1578 13.9272 17.4772 13.6606C17.7966 13.3939 18.0123 13.0237 18.0869 12.6144ZM9.22139 17.9252C9.22139 18.101 9.16927 18.2728 9.07161 18.419C8.97395 18.5652 8.83514 18.6791 8.67274 18.7464C8.51034 18.8136 8.33164 18.8312 8.15923 18.7969C7.98683 18.7627 7.82846 18.678 7.70417 18.5537C7.57987 18.4294 7.49522 18.271 7.46093 18.0986C7.42664 17.9262 7.44424 17.7475 7.5115 17.585C7.57877 17.4226 7.69269 17.2838 7.83885 17.1861C7.985 17.0885 8.15684 17.0363 8.33262 17.0363C8.56834 17.0363 8.7944 17.13 8.96108 17.2967C9.12775 17.4634 9.22139 17.6894 9.22139 17.9252ZM16.9241 17.9252C16.9241 18.101 16.8719 18.2728 16.7743 18.419C16.6766 18.5652 16.5378 18.6791 16.3754 18.7464C16.213 18.8136 16.0343 18.8312 15.8619 18.7969C15.6895 18.7627 15.5311 18.678 15.4068 18.5537C15.2825 18.4294 15.1979 18.271 15.1636 18.0986C15.1293 17.9262 15.1469 17.7475 15.2142 17.585C15.2814 17.4226 15.3954 17.2838 15.5415 17.1861C15.6877 17.0885 15.8595 17.0363 16.0353 17.0363C16.271 17.0363 16.4971 17.13 16.6638 17.2967C16.8304 17.4634 16.9241 17.6894 16.9241 17.9252ZM6.67358 8.14793H17.6943L16.9241 12.3996C16.8997 12.5369 16.8276 12.6612 16.7206 12.7506C16.6136 12.84 16.4784 12.8888 16.339 12.8884H7.53273L6.67358 8.14793Z" fill="white"/>
<rect x="13" width="11" height="12" rx="5.5" fill="#C3935B"/>
<path d="M18.5001 10.16C17.9935 10.16 17.5701 10.0533 17.2301 9.84C16.8901 9.62 16.6235 9.33333 16.4301 8.98C16.2368 8.62 16.0968 8.22667 16.0101 7.8C15.9301 7.37333 15.8901 6.95 15.8901 6.53C15.8901 6.11 15.9401 5.68333 16.0401 5.25C16.1468 4.81667 16.3068 4.42 16.5201 4.06C16.7335 3.69333 17.0068 3.4 17.3401 3.18C17.6735 2.95333 18.0735 2.84 18.5401 2.84C19.0268 2.84 19.4335 2.95 19.7601 3.17C20.0935 3.39 20.3601 3.68 20.5601 4.04C20.7601 4.39333 20.9035 4.78333 20.9901 5.21C21.0768 5.63667 21.1201 6.06 21.1201 6.48C21.1201 6.89333 21.0701 7.31667 20.9701 7.75C20.8701 8.18333 20.7135 8.58333 20.5001 8.95C20.2935 9.31 20.0235 9.60333 19.6901 9.83C19.3635 10.05 18.9668 10.16 18.5001 10.16ZM18.5601 9.66C18.8335 9.66 19.0568 9.57667 19.2301 9.41C19.4035 9.24333 19.5401 9.01667 19.6401 8.73C19.7468 8.44333 19.8201 8.12333 19.8601 7.77C19.9001 7.41667 19.9201 7.05667 19.9201 6.69C19.9201 6.28333 19.9001 5.88333 19.8601 5.49C19.8201 5.09 19.7468 4.72667 19.6401 4.4C19.5401 4.07333 19.4001 3.81333 19.2201 3.62C19.0401 3.42667 18.8068 3.33 18.5201 3.33C18.2535 3.33 18.0268 3.41333 17.8401 3.58C17.6535 3.74667 17.5035 3.97333 17.3901 4.26C17.2835 4.54667 17.2035 4.87 17.1501 5.23C17.1035 5.58333 17.0801 5.94667 17.0801 6.32C17.0801 6.6 17.0901 6.89333 17.1101 7.2C17.1368 7.50667 17.1801 7.80667 17.2401 8.1C17.3068 8.39333 17.3935 8.65667 17.5001 8.89C17.6135 9.12333 17.7568 9.31 17.9301 9.45C18.1035 9.59 18.3135 9.66 18.5601 9.66Z" fill="white"/>
</svg>
